<?xml version="1.0" encoding="utf-8"?>
<!-- Generated by Mocodo 4.2.12 -->
<svg width="610" height="390" viewBox="0 0 610 390" xmlns="http://www.w3.org/2000/svg">
<rect x="0" y="0" width="610" height="390" fill="#f7f7f7" stroke="none" stroke-width="0"/>

<!-- Association CONTAINS_MILK -->
<g>
	<line x1="72" y1="34" x2="212" y2="34" stroke="#7fbc41" stroke-width="2"/>
	<line x1="212" y1="135" x2="212" y2="34" stroke="#7fbc41" stroke-width="2"/>
	<g>
		<path d="M257 9 a14 14 90 0 1 14 14 V34 h-118 V23 a14 14 90 0 1 14 -14" fill="#b8e186" stroke="#b8e186" stroke-width="0"/>
		<path d="M271 34 v11 a14 14 90 0 1 -14 14 H167 a14 14 90 0 1 -14 -14 V34 H118" fill="#e6f5d0" stroke="#e6f5d0" stroke-width="0"/>
		<rect x="153" y="9" width="118" height="50" fill="none" rx="14" stroke="#7fbc41" stroke-width="2"/>
		<line x1="153" y1="34" x2="271" y2="34" stroke="#7fbc41" stroke-width="1"/>
		<text x="160" y="26.75" fill="#000000" font-family="Verdana" font-size="12">CONTAINS_MILK</text>
	</g>
	<text x="98" y="51" fill="#c51b7d" font-family="Verdana" font-size="12">0,N</text>
	<text x="186" y="76" fill="#c51b7d" font-family="Verdana" font-size="12">0,1</text>
</g>

<!-- Association CONTAINS_TOPPING -->
<g>
	<line x1="545" y1="34" x2="374" y2="34" stroke="#7fbc41" stroke-width="2"/>
	<line x1="212" y1="135" x2="374" y2="34" stroke="#7fbc41" stroke-width="2"/>
	<g>
		<path d="M431 9 a14 14 90 0 1 14 14 V34 h-142 V23 a14 14 90 0 1 14 -14" fill="#b8e186" stroke="#b8e186" stroke-width="0"/>
		<path d="M445 34 v11 a14 14 90 0 1 -14 14 H317 a14 14 90 0 1 -14 -14 V34 H142" fill="#e6f5d0" stroke="#e6f5d0" stroke-width="0"/>
		<rect x="303" y="9" width="142" height="50" fill="none" rx="14" stroke="#7fbc41" stroke-width="2"/>
		<line x1="303" y1="34" x2="445" y2="34" stroke="#7fbc41" stroke-width="1"/>
		<text x="310" y="26.75" fill="#000000" font-family="Verdana" font-size="12">CONTAINS_TOPPING</text>
	</g>
	<text x="485" y="51" fill="#c51b7d" font-family="Verdana" font-size="12">0,N</text>
	<text x="262" y="119.13" fill="#c51b7d" font-family="Verdana" font-size="12">0,N</text>
</g>

<!-- Association CONTAINS_PEARL -->
<g>
	<line x1="72" y1="296" x2="72" y2="135" stroke="#7fbc41" stroke-width="2"/>
	<line x1="212" y1="135" x2="72" y2="135" stroke="#7fbc41" stroke-width="2"/>
	<g>
		<path d="M121 110 a14 14 90 0 1 14 14 V135 h-126 V124 a14 14 90 0 1 14 -14" fill="#b8e186" stroke="#b8e186" stroke-width="0"/>
		<path d="M135 135 v11 a14 14 90 0 1 -14 14 H23 a14 14 90 0 1 -14 -14 V135 H126" fill="#e6f5d0" stroke="#e6f5d0" stroke-width="0"/>
		<rect x="9" y="110" width="126" height="50" fill="none" rx="14" stroke="#7fbc41" stroke-width="2"/>
		<line x1="9" y1="135" x2="135" y2="135" stroke="#7fbc41" stroke-width="1"/>
		<text x="17" y="127.75" fill="#000000" font-family="Verdana" font-size="12">CONTAINS_PEARL</text>
	</g>
	<text x="77" y="263" fill="#c51b7d" font-family="Verdana" font-size="12">0,N</text>
	<text x="141" y="152" fill="#c51b7d" font-family="Verdana" font-size="12">1,1</text>
</g>

<!-- Association CONTAINS_BUBBLE_TEA -->
<g>
	<line x1="545" y1="135" x2="374" y2="135" stroke="#7fbc41" stroke-width="2"/>
	<line x1="212" y1="135" x2="374" y2="135" stroke="#7fbc41" stroke-width="2"/>
	<g>
		<path d="M443 110 a14 14 90 0 1 14 14 V135 h-166 V124 a14 14 90 0 1 14 -14" fill="#b8e186" stroke="#b8e186" stroke-width="0"/>
		<path d="M457 135 v11 a14 14 90 0 1 -14 14 H305 a14 14 90 0 1 -14 -14 V135 H166" fill="#e6f5d0" stroke="#e6f5d0" stroke-width="0"/>
		<rect x="291" y="110" width="166" height="50" fill="none" rx="14" stroke="#7fbc41" stroke-width="2"/>
		<line x1="291" y1="135" x2="457" y2="135" stroke="#7fbc41" stroke-width="1"/>
		<text x="298" y="127.75" fill="#000000" font-family="Verdana" font-size="12">CONTAINS_BUBBLE_TEA</text>
	</g>
	<text x="462" y="152" fill="#c51b7d" font-family="Verdana" font-size="12">0,N</text>
	<text x="262" y="152" fill="#c51b7d" font-family="Verdana" font-size="12">1,1</text>
</g>

<!-- Association CONTAINS_TEA -->
<g>
	<line x1="374" y1="296" x2="212" y2="296" stroke="#7fbc41" stroke-width="2"/>
	<line x1="212" y1="135" x2="212" y2="296" stroke="#7fbc41" stroke-width="2"/>
	<g>
		<path d="M254 271 a14 14 90 0 1 14 14 V296 h-112 V285 a14 14 90 0 1 14 -14" fill="#b8e186" stroke="#b8e186" stroke-width="0"/>
		<path d="M268 296 v11 a14 14 90 0 1 -14 14 H170 a14 14 90 0 1 -14 -14 V296 H112" fill="#e6f5d0" stroke="#e6f5d0" stroke-width="0"/>
		<rect x="156" y="271" width="112" height="50" fill="none" rx="14" stroke="#7fbc41" stroke-width="2"/>
		<line x1="156" y1="296" x2="268" y2="296" stroke="#7fbc41" stroke-width="1"/>
		<text x="164" y="288.75" fill="#000000" font-family="Verdana" font-size="12">CONTAINS_TEA</text>
	</g>
	<text x="328" y="313" fill="#c51b7d" font-family="Verdana" font-size="12">0,N</text>
	<text x="217" y="203" fill="#c51b7d" font-family="Verdana" font-size="12">0,N</text>
</g>

<!-- Entity MILK -->
<g>
	<g>
		<rect x="51" y="9" width="42" height="25" fill="#f1b6da" stroke="none" stroke-width="0" opacity="1"/>
		<rect x="51" y="34" width="42" height="25" fill="#fde0ef" stroke="none" stroke-width="0" opacity="1"/>
		<rect x="51" y="9" width="42" height="50" fill="none" stroke="#de77ae" stroke-width="2" opacity="1"/>
		<line x1="51" y1="34" x2="93" y2="34" stroke="#de77ae" stroke-width="1"/>
	</g>
	<text x="57" y="26.75" fill="#000000" font-family="Verdana" font-size="12">MILK</text>
	<text x="56" y="51.8" fill="#000000" font-family="Verdana" font-size="12">nom</text>
	<line x1="56" y1="54" x2="84" y2="54" stroke="#000000" stroke-width="1"/>
</g>

<!-- Entity TOPPING -->
<g>
	<g>
		<rect x="512" y="9" width="66" height="25" fill="#f1b6da" stroke="none" stroke-width="0" opacity="1"/>
		<rect x="512" y="34" width="66" height="25" fill="#fde0ef" stroke="none" stroke-width="0" opacity="1"/>
		<rect x="512" y="9" width="66" height="50" fill="none" stroke="#de77ae" stroke-width="2" opacity="1"/>
		<line x1="512" y1="34" x2="578" y2="34" stroke="#de77ae" stroke-width="1"/>
	</g>
	<text x="517" y="26.75" fill="#000000" font-family="Verdana" font-size="12">TOPPING</text>
	<text x="517" y="51.8" fill="#000000" font-family="Verdana" font-size="12">nom</text>
	<line x1="517" y1="54" x2="545" y2="54" stroke="#000000" stroke-width="1"/>
</g>

<!-- Entity BUBBLE_TEA -->
<g>
	<g>
		<rect x="167" y="84" width="90" height="25" fill="#f1b6da" stroke="none" stroke-width="0" opacity="1"/>
		<rect x="167" y="109" width="90" height="77" fill="#fde0ef" stroke="none" stroke-width="0" opacity="1"/>
		<rect x="167" y="84" width="90" height="102" fill="none" stroke="#de77ae" stroke-width="2" opacity="1"/>
		<line x1="167" y1="109" x2="257" y2="109" stroke="#de77ae" stroke-width="1"/>
	</g>
	<text x="172" y="101.75" fill="#000000" font-family="Verdana" font-size="12">BUBBLE_TEA</text>
	<text x="172" y="126.8" fill="#000000" font-family="Verdana" font-size="12">nom</text>
	<line x1="172" y1="129" x2="200" y2="129" stroke="#000000" stroke-width="1"/>
	<text x="172" y="143.8" fill="#000000" font-family="Verdana" font-size="12">type</text>
	<text x="172" y="160.8" fill="#000000" font-family="Verdana" font-size="12">image</text>
	<text x="172" y="177.8" fill="#000000" font-family="Verdana" font-size="12">icone</text>
</g>

<!-- Entity COLLECTION -->
<g>
	<g>
		<rect x="489" y="84" width="112" height="25" fill="#f1b6da" stroke="none" stroke-width="0" opacity="1"/>
		<rect x="489" y="109" width="112" height="77" fill="#fde0ef" stroke="none" stroke-width="0" opacity="1"/>
		<rect x="489" y="84" width="112" height="102" fill="none" stroke="#de77ae" stroke-width="2" opacity="1"/>
		<line x1="489" y1="109" x2="601" y2="109" stroke="#de77ae" stroke-width="1"/>
	</g>
	<text x="506" y="101.75" fill="#000000" font-family="Verdana" font-size="12">COLLECTION</text>
	<text x="494" y="126.8" fill="#000000" font-family="Verdana" font-size="12">nom</text>
	<line x1="494" y1="129" x2="522" y2="129" stroke="#000000" stroke-width="1"/>
	<text x="494" y="143.8" fill="#000000" font-family="Verdana" font-size="12">image_collection</text>
	<text x="494" y="160.8" fill="#000000" font-family="Verdana" font-size="12">prix_l</text>
	<text x="494" y="177.8" fill="#000000" font-family="Verdana" font-size="12">prix_xl</text>
</g>

<!-- Entity PEARL -->
<g>
	<g>
		<rect x="47" y="271" width="50" height="25" fill="#f1b6da" stroke="none" stroke-width="0" opacity="1"/>
		<rect x="47" y="296" width="50" height="25" fill="#fde0ef" stroke="none" stroke-width="0" opacity="1"/>
		<rect x="47" y="271" width="50" height="50" fill="none" stroke="#de77ae" stroke-width="2" opacity="1"/>
		<line x1="47" y1="296" x2="97" y2="296" stroke="#de77ae" stroke-width="1"/>
	</g>
	<text x="53" y="288.75" fill="#000000" font-family="Verdana" font-size="12">PEARL</text>
	<text x="52" y="313.8" fill="#000000" font-family="Verdana" font-size="12">nom</text>
	<line x1="52" y1="316" x2="80" y2="316" stroke="#000000" stroke-width="1"/>
</g>

<!-- Entity TEA -->
<g>
	<g>
		<rect x="355" y="271" width="38" height="25" fill="#f1b6da" stroke="none" stroke-width="0" opacity="1"/>
		<rect x="355" y="296" width="38" height="25" fill="#fde0ef" stroke="none" stroke-width="0" opacity="1"/>
		<rect x="355" y="271" width="38" height="50" fill="none" stroke="#de77ae" stroke-width="2" opacity="1"/>
		<line x1="355" y1="296" x2="393" y2="296" stroke="#de77ae" stroke-width="1"/>
	</g>
	<text x="362" y="288.75" fill="#000000" font-family="Verdana" font-size="12">TEA</text>
	<text x="360" y="313.8" fill="#000000" font-family="Verdana" font-size="12">nom</text>
	<line x1="360" y1="316" x2="388" y2="316" stroke="#000000" stroke-width="1"/>
</g>

<!-- Entity BAR -->
<g>
	<g>
		<rect x="515" y="211" width="60" height="25" fill="#f1b6da" stroke="none" stroke-width="0" opacity="1"/>
		<rect x="515" y="236" width="60" height="145" fill="#fde0ef" stroke="none" stroke-width="0" opacity="1"/>
		<rect x="515" y="211" width="60" height="170" fill="none" stroke="#de77ae" stroke-width="2" opacity="1"/>
		<line x1="515" y1="236" x2="575" y2="236" stroke="#de77ae" stroke-width="1"/>
	</g>
	<text x="532" y="228.75" fill="#000000" font-family="Verdana" font-size="12">BAR</text>
	<text x="520" y="253.8" fill="#000000" font-family="Verdana" font-size="12">nom</text>
	<line x1="520" y1="256" x2="548" y2="256" stroke="#000000" stroke-width="1"/>
	<text x="520" y="270.8" fill="#000000" font-family="Verdana" font-size="12">adresse</text>
	<text x="520" y="287.8" fill="#000000" font-family="Verdana" font-size="12">horaires</text>
	<text x="520" y="304.8" fill="#000000" font-family="Verdana" font-size="12">image1</text>
	<text x="520" y="321.8" fill="#000000" font-family="Verdana" font-size="12">image2</text>
	<text x="520" y="338.8" fill="#000000" font-family="Verdana" font-size="12">image3</text>
	<text x="520" y="355.8" fill="#000000" font-family="Verdana" font-size="12">image4</text>
	<text x="520" y="372.8" fill="#000000" font-family="Verdana" font-size="12">image5</text>
</g>
</svg>