<?xml version="1.0" encoding="utf-8"?>
<!-- Generated by Mocodo 4.2.12 -->
<svg width="586" height="440" viewBox="0 0 586 440" xmlns="http://www.w3.org/2000/svg">
<rect x="0" y="0" width="586" height="440" fill="#f7f7f7" stroke="none" stroke-width="0"/>

<!-- Association CONTAINS_MILK -->
<g>
	<line x1="72" y1="43" x2="222" y2="43" stroke="#de77ae" stroke-width="2"/>
	<line x1="222" y1="169" x2="222" y2="43" stroke="#de77ae" stroke-width="2"/>
	<g>
		<path d="M267 18 a14 14 90 0 1 14 14 V43 h-118 V32 a14 14 90 0 1 14 -14" fill="#f1b6da" stroke="#f1b6da" stroke-width="0"/>
		<path d="M281 43 v11 a14 14 90 0 1 -14 14 H177 a14 14 90 0 1 -14 -14 V43 H118" fill="#fde0ef" stroke="#fde0ef" stroke-width="0"/>
		<rect x="163" y="18" width="118" height="50" fill="none" rx="14" stroke="#de77ae" stroke-width="2"/>
		<line x1="163" y1="43" x2="281" y2="43" stroke="#de77ae" stroke-width="1"/>
		<text x="170" y="35.75" fill="#000000" font-family="Verdana" font-size="12">CONTAINS_MILK</text>
	</g>
	<text x="100" y="60" fill="#4d9221" font-family="Verdana" font-size="12">0,N</text>
	<text x="196" y="85" fill="#4d9221" font-family="Verdana" font-size="12">0,1</text>
</g>

<!-- Association CONTAINS_TOPPING -->
<g>
	<line x1="521" y1="43" x2="384" y2="43" stroke="#de77ae" stroke-width="2"/>
	<line x1="222" y1="169" x2="384" y2="43" stroke="#de77ae" stroke-width="2"/>
	<g>
		<path d="M441 18 a14 14 90 0 1 14 14 V43 h-142 V32 a14 14 90 0 1 14 -14" fill="#f1b6da" stroke="#f1b6da" stroke-width="0"/>
		<path d="M455 43 v11 a14 14 90 0 1 -14 14 H327 a14 14 90 0 1 -14 -14 V43 H142" fill="#fde0ef" stroke="#fde0ef" stroke-width="0"/>
		<rect x="313" y="18" width="142" height="50" fill="none" rx="14" stroke="#de77ae" stroke-width="2"/>
		<line x1="313" y1="43" x2="455" y2="43" stroke="#de77ae" stroke-width="1"/>
		<text x="320" y="35.75" fill="#000000" font-family="Verdana" font-size="12">CONTAINS_TOPPING</text>
	</g>
	<text x="461" y="60" fill="#4d9221" font-family="Verdana" font-size="12">0,N</text>
	<text x="282" y="137.39" fill="#4d9221" font-family="Verdana" font-size="12">0,N</text>
</g>

<!-- Association CONTAINS_PEARL -->
<g>
	<line x1="72" y1="338" x2="72" y2="169" stroke="#de77ae" stroke-width="2"/>
	<line x1="222" y1="169" x2="72" y2="169" stroke="#de77ae" stroke-width="2"/>
	<g>
		<path d="M121 144 a14 14 90 0 1 14 14 V169 h-126 V158 a14 14 90 0 1 14 -14" fill="#f1b6da" stroke="#f1b6da" stroke-width="0"/>
		<path d="M135 169 v11 a14 14 90 0 1 -14 14 H23 a14 14 90 0 1 -14 -14 V169 H126" fill="#fde0ef" stroke="#fde0ef" stroke-width="0"/>
		<rect x="9" y="144" width="126" height="50" fill="none" rx="14" stroke="#de77ae" stroke-width="2"/>
		<line x1="9" y1="169" x2="135" y2="169" stroke="#de77ae" stroke-width="1"/>
		<text x="17" y="161.75" fill="#000000" font-family="Verdana" font-size="12">CONTAINS_PEARL</text>
	</g>
	<text x="77" y="296" fill="#4d9221" font-family="Verdana" font-size="12">0,N</text>
	<text x="140" y="186" fill="#4d9221" font-family="Verdana" font-size="12">0,N</text>
</g>

<!-- Association BELONGS_TO -->
<g>
	<line x1="222" y1="169" x2="384" y2="169" stroke="#de77ae" stroke-width="2"/>
	<line x1="521" y1="169" x2="384" y2="169" stroke="#de77ae" stroke-width="2"/>
	<g>
		<path d="M419 144 a14 14 90 0 1 14 14 V169 h-98 V158 a14 14 90 0 1 14 -14" fill="#f1b6da" stroke="#f1b6da" stroke-width="0"/>
		<path d="M433 169 v11 a14 14 90 0 1 -14 14 H349 a14 14 90 0 1 -14 -14 V169 H98" fill="#fde0ef" stroke="#fde0ef" stroke-width="0"/>
		<rect x="335" y="144" width="98" height="50" fill="none" rx="14" stroke="#de77ae" stroke-width="2"/>
		<line x1="335" y1="169" x2="433" y2="169" stroke="#de77ae" stroke-width="1"/>
		<text x="342" y="161.75" fill="#000000" font-family="Verdana" font-size="12">BELONGS_TO</text>
	</g>
	<text x="282" y="186" fill="#4d9221" font-family="Verdana" font-size="12">1,1</text>
	<text x="438" y="186" fill="#4d9221" font-family="Verdana" font-size="12">0,N</text>
</g>

<!-- Association CONTAINS_TEA -->
<g>
	<line x1="384" y1="338" x2="222" y2="338" stroke="#de77ae" stroke-width="2"/>
	<line x1="222" y1="169" x2="222" y2="338" stroke="#de77ae" stroke-width="2"/>
	<g>
		<path d="M264 313 a14 14 90 0 1 14 14 V338 h-112 V327 a14 14 90 0 1 14 -14" fill="#f1b6da" stroke="#f1b6da" stroke-width="0"/>
		<path d="M278 338 v11 a14 14 90 0 1 -14 14 H180 a14 14 90 0 1 -14 -14 V338 H112" fill="#fde0ef" stroke="#fde0ef" stroke-width="0"/>
		<rect x="166" y="313" width="112" height="50" fill="none" rx="14" stroke="#de77ae" stroke-width="2"/>
		<line x1="166" y1="338" x2="278" y2="338" stroke="#de77ae" stroke-width="1"/>
		<text x="174" y="330.75" fill="#000000" font-family="Verdana" font-size="12">CONTAINS_TEA</text>
	</g>
	<text x="334" y="355" fill="#4d9221" font-family="Verdana" font-size="12">0,N</text>
	<text x="227" y="262" fill="#4d9221" font-family="Verdana" font-size="12">0,N</text>
</g>

<!-- Entity MILK -->
<g>
	<g>
		<rect x="49" y="9" width="46" height="25" fill="#b8e186" stroke="none" stroke-width="0" opacity="1"/>
		<rect x="49" y="34" width="46" height="43" fill="#e6f5d0" stroke="none" stroke-width="0" opacity="1"/>
		<rect x="49" y="9" width="46" height="68" fill="none" stroke="#7fbc41" stroke-width="2" opacity="1"/>
		<line x1="49" y1="34" x2="95" y2="34" stroke="#7fbc41" stroke-width="1"/>
	</g>
	<text x="57" y="26.75" fill="#000000" font-family="Verdana" font-size="12">MILK</text>
	<text x="54" y="51.8" fill="#000000" font-family="Verdana" font-size="12">id</text>
	<line x1="54" y1="54" x2="66" y2="54" stroke="#000000" stroke-width="1"/>
	<text x="54" y="68.8" fill="#000000" font-family="Verdana" font-size="12">name</text>
</g>

<!-- Entity TOPPING -->
<g>
	<g>
		<rect x="488" y="9" width="66" height="25" fill="#b8e186" stroke="none" stroke-width="0" opacity="1"/>
		<rect x="488" y="34" width="66" height="43" fill="#e6f5d0" stroke="none" stroke-width="0" opacity="1"/>
		<rect x="488" y="9" width="66" height="68" fill="none" stroke="#7fbc41" stroke-width="2" opacity="1"/>
		<line x1="488" y1="34" x2="554" y2="34" stroke="#7fbc41" stroke-width="1"/>
	</g>
	<text x="493" y="26.75" fill="#000000" font-family="Verdana" font-size="12">TOPPING</text>
	<text x="493" y="51.8" fill="#000000" font-family="Verdana" font-size="12">id</text>
	<line x1="493" y1="54" x2="505" y2="54" stroke="#000000" stroke-width="1"/>
	<text x="493" y="68.8" fill="#000000" font-family="Verdana" font-size="12">name</text>
</g>

<!-- Entity BUBBLE_TEA -->
<g>
	<g>
		<rect x="167" y="93" width="110" height="25" fill="#b8e186" stroke="none" stroke-width="0" opacity="1"/>
		<rect x="167" y="118" width="110" height="127" fill="#e6f5d0" stroke="none" stroke-width="0" opacity="1"/>
		<rect x="167" y="93" width="110" height="152" fill="none" stroke="#7fbc41" stroke-width="2" opacity="1"/>
		<line x1="167" y1="118" x2="277" y2="118" stroke="#7fbc41" stroke-width="1"/>
	</g>
	<text x="182" y="110.75" fill="#000000" font-family="Verdana" font-size="12">BUBBLE_TEA</text>
	<text x="172" y="135.8" fill="#000000" font-family="Verdana" font-size="12">id</text>
	<line x1="172" y1="138" x2="184" y2="138" stroke="#000000" stroke-width="1"/>
	<text x="172" y="152.8" fill="#000000" font-family="Verdana" font-size="12">name</text>
	<text x="172" y="169.8" fill="#000000" font-family="Verdana" font-size="12">prixL</text>
	<text x="172" y="186.8" fill="#000000" font-family="Verdana" font-size="12">prixXL</text>
	<text x="172" y="203.8" fill="#000000" font-family="Verdana" font-size="12">image</text>
	<text x="172" y="220.8" fill="#000000" font-family="Verdana" font-size="12">icone</text>
	<text x="172" y="237.8" fill="#000000" font-family="Verdana" font-size="12">collection_name</text>
</g>

<!-- Entity COLLECTION -->
<g>
	<g>
		<rect x="465" y="118" width="112" height="25" fill="#b8e186" stroke="none" stroke-width="0" opacity="1"/>
		<rect x="465" y="143" width="112" height="77" fill="#e6f5d0" stroke="none" stroke-width="0" opacity="1"/>
		<rect x="465" y="118" width="112" height="102" fill="none" stroke="#7fbc41" stroke-width="2" opacity="1"/>
		<line x1="465" y1="143" x2="577" y2="143" stroke="#7fbc41" stroke-width="1"/>
	</g>
	<text x="482" y="135.75" fill="#000000" font-family="Verdana" font-size="12">COLLECTION</text>
	<text x="470" y="160.8" fill="#000000" font-family="Verdana" font-size="12">id</text>
	<line x1="470" y1="163" x2="482" y2="163" stroke="#000000" stroke-width="1"/>
	<text x="470" y="177.8" fill="#000000" font-family="Verdana" font-size="12">name</text>
	<text x="470" y="194.8" fill="#000000" font-family="Verdana" font-size="12">image_collection</text>
	<text x="470" y="211.8" fill="#000000" font-family="Verdana" font-size="12">bubble_tea_id</text>
</g>

<!-- Entity PEARL -->
<g>
	<g>
		<rect x="47" y="304" width="50" height="25" fill="#b8e186" stroke="none" stroke-width="0" opacity="1"/>
		<rect x="47" y="329" width="50" height="43" fill="#e6f5d0" stroke="none" stroke-width="0" opacity="1"/>
		<rect x="47" y="304" width="50" height="68" fill="none" stroke="#7fbc41" stroke-width="2" opacity="1"/>
		<line x1="47" y1="329" x2="97" y2="329" stroke="#7fbc41" stroke-width="1"/>
	</g>
	<text x="53" y="321.75" fill="#000000" font-family="Verdana" font-size="12">PEARL</text>
	<text x="52" y="346.8" fill="#000000" font-family="Verdana" font-size="12">id</text>
	<line x1="52" y1="349" x2="64" y2="349" stroke="#000000" stroke-width="1"/>
	<text x="52" y="363.8" fill="#000000" font-family="Verdana" font-size="12">name</text>
</g>

<!-- Entity TEA -->
<g>
	<g>
		<rect x="361" y="304" width="46" height="25" fill="#b8e186" stroke="none" stroke-width="0" opacity="1"/>
		<rect x="361" y="329" width="46" height="43" fill="#e6f5d0" stroke="none" stroke-width="0" opacity="1"/>
		<rect x="361" y="304" width="46" height="68" fill="none" stroke="#7fbc41" stroke-width="2" opacity="1"/>
		<line x1="361" y1="329" x2="407" y2="329" stroke="#7fbc41" stroke-width="1"/>
	</g>
	<text x="372" y="321.75" fill="#000000" font-family="Verdana" font-size="12">TEA</text>
	<text x="366" y="346.8" fill="#000000" font-family="Verdana" font-size="12">id</text>
	<line x1="366" y1="349" x2="378" y2="349" stroke="#000000" stroke-width="1"/>
	<text x="366" y="363.8" fill="#000000" font-family="Verdana" font-size="12">name</text>
</g>

<!-- Entity BAR -->
<g>
	<g>
		<rect x="492" y="245" width="58" height="25" fill="#b8e186" stroke="none" stroke-width="0" opacity="1"/>
		<rect x="492" y="270" width="58" height="161" fill="#e6f5d0" stroke="none" stroke-width="0" opacity="1"/>
		<rect x="492" y="245" width="58" height="186" fill="none" stroke="#7fbc41" stroke-width="2" opacity="1"/>
		<line x1="492" y1="270" x2="550" y2="270" stroke="#7fbc41" stroke-width="1"/>
	</g>
	<text x="508" y="262.75" fill="#000000" font-family="Verdana" font-size="12">BAR</text>
	<text x="497" y="287.8" fill="#000000" font-family="Verdana" font-size="12">id</text>
	<line x1="497" y1="290" x2="509" y2="290" stroke="#000000" stroke-width="1"/>
	<text x="497" y="304.8" fill="#000000" font-family="Verdana" font-size="12">name</text>
	<text x="497" y="321.8" fill="#000000" font-family="Verdana" font-size="12">adresse</text>
	<text x="497" y="338.8" fill="#000000" font-family="Verdana" font-size="12">horaire</text>
	<text x="497" y="355.8" fill="#000000" font-family="Verdana" font-size="12">image1</text>
	<text x="497" y="372.8" fill="#000000" font-family="Verdana" font-size="12">image2</text>
	<text x="497" y="389.8" fill="#000000" font-family="Verdana" font-size="12">image3</text>
	<text x="497" y="406.8" fill="#000000" font-family="Verdana" font-size="12">image4</text>
	<text x="497" y="423.8" fill="#000000" font-family="Verdana" font-size="12">image5</text>
</g>
</svg>